<svg width="525" height="525" viewBox="0 0 525 525" fill="none" xmlns="http://www.w3.org/2000/svg">
<circle cx="262.453" cy="262.303" r="259" fill="white" stroke="url(#paint0_linear_35_33)" stroke-width="6"/>
<path d="M105.561 312.284V337.063H102.294V312.284H105.561Z" fill="#1941A0"/>
<path d="M114.798 325.883V337.063H111.69V318.479H114.693V321.383H114.956C115.431 320.439 116.151 319.681 117.117 319.108C118.083 318.527 119.33 318.237 120.858 318.237C122.228 318.237 123.427 318.495 124.454 319.011C125.481 319.52 126.281 320.294 126.851 321.334C127.422 322.367 127.708 323.673 127.708 325.254V337.063H124.599V325.448C124.599 323.988 124.186 322.851 123.361 322.036C122.535 321.213 121.402 320.802 119.962 320.802C118.97 320.802 118.083 321 117.301 321.395C116.528 321.79 115.918 322.367 115.47 323.125C115.022 323.883 114.798 324.803 114.798 325.883Z" fill="#1941A0"/>
<path d="M147.72 322.641L144.928 323.367C144.752 322.939 144.493 322.524 144.15 322.121C143.817 321.709 143.36 321.371 142.78 321.104C142.201 320.838 141.459 320.705 140.554 320.705C139.316 320.705 138.284 320.967 137.459 321.492C136.642 322.008 136.234 322.665 136.234 323.464C136.234 324.173 136.515 324.734 137.077 325.145C137.639 325.557 138.517 325.9 139.711 326.174L142.715 326.851C144.524 327.255 145.872 327.872 146.759 328.702C147.646 329.525 148.089 330.586 148.089 331.884C148.089 332.949 147.755 333.901 147.088 334.74C146.429 335.579 145.507 336.24 144.322 336.724C143.136 337.208 141.757 337.45 140.185 337.45C138.122 337.45 136.414 337.038 135.061 336.216C133.709 335.393 132.853 334.191 132.493 332.61L135.443 331.933C135.724 332.933 136.256 333.683 137.037 334.183C137.828 334.683 138.859 334.933 140.133 334.933C141.582 334.933 142.732 334.651 143.584 334.086C144.445 333.514 144.875 332.828 144.875 332.03C144.875 331.384 144.629 330.844 144.137 330.408C143.645 329.965 142.89 329.634 141.872 329.416L138.499 328.69C136.646 328.287 135.285 327.662 134.416 326.815C133.555 325.96 133.125 324.891 133.125 323.609C133.125 322.56 133.445 321.633 134.087 320.826C134.736 320.02 135.619 319.386 136.734 318.927C137.858 318.467 139.132 318.237 140.554 318.237C142.557 318.237 144.128 318.64 145.27 319.447C146.421 320.253 147.237 321.318 147.72 322.641Z" fill="#1941A0"/>
<path d="M161.568 318.479V320.899H151.083V318.479H161.568ZM154.139 314.027H157.247V331.739C157.247 332.546 157.375 333.151 157.629 333.554C157.893 333.949 158.227 334.215 158.631 334.353C159.043 334.482 159.478 334.546 159.935 334.546C160.277 334.546 160.558 334.53 160.778 334.498C160.997 334.457 161.173 334.425 161.305 334.401L161.937 336.966C161.726 337.038 161.432 337.111 161.054 337.184C160.677 337.264 160.198 337.305 159.618 337.305C158.74 337.305 157.88 337.131 157.037 336.784C156.202 336.438 155.509 335.909 154.955 335.199C154.411 334.49 154.139 333.594 154.139 332.514V314.027Z" fill="#1941A0"/>
<path d="M166.244 337.063V318.479H169.353V337.063H166.244ZM167.825 315.382C167.219 315.382 166.697 315.192 166.257 314.813C165.827 314.434 165.612 313.978 165.612 313.446C165.612 312.914 165.827 312.458 166.257 312.079C166.697 311.7 167.219 311.51 167.825 311.51C168.431 311.51 168.949 311.7 169.379 312.079C169.818 312.458 170.038 312.914 170.038 313.446C170.038 313.978 169.818 314.434 169.379 314.813C168.949 315.192 168.431 315.382 167.825 315.382Z" fill="#1941A0"/>
<path d="M183.846 318.479V320.899H173.361V318.479H183.846ZM176.417 314.027H179.526V331.739C179.526 332.546 179.653 333.151 179.908 333.554C180.171 333.949 180.505 334.215 180.909 334.353C181.322 334.482 181.756 334.546 182.213 334.546C182.555 334.546 182.836 334.53 183.056 334.498C183.275 334.457 183.451 334.425 183.583 334.401L184.215 336.966C184.004 337.038 183.71 337.111 183.333 337.184C182.955 337.264 182.476 337.305 181.897 337.305C181.019 337.305 180.158 337.131 179.315 336.784C178.481 336.438 177.787 335.909 177.234 335.199C176.689 334.49 176.417 333.594 176.417 332.514V314.027Z" fill="#1941A0"/>
<path d="M201.274 329.465V318.479H204.383V337.063H201.274V333.917H201.063C200.589 334.861 199.851 335.663 198.85 336.325C197.849 336.978 196.584 337.305 195.056 337.305C193.792 337.305 192.668 337.051 191.684 336.542C190.7 336.026 189.928 335.252 189.366 334.219C188.804 333.179 188.523 331.868 188.523 330.287V318.479H191.631V330.094C191.631 331.449 192.044 332.53 192.87 333.336C193.704 334.143 194.766 334.546 196.057 334.546C196.83 334.546 197.616 334.365 198.415 334.002C199.223 333.639 199.899 333.082 200.444 332.332C200.997 331.582 201.274 330.626 201.274 329.465Z" fill="#1941A0"/>
<path d="M218.876 318.479V320.899H208.39V318.479H218.876ZM211.446 314.027H214.555V331.739C214.555 332.546 214.682 333.151 214.937 333.554C215.201 333.949 215.534 334.215 215.938 334.353C216.351 334.482 216.786 334.546 217.242 334.546C217.585 334.546 217.866 334.53 218.085 334.498C218.305 334.457 218.481 334.425 218.612 334.401L219.245 336.966C219.034 337.038 218.74 337.111 218.362 337.184C217.984 337.264 217.506 337.305 216.926 337.305C216.048 337.305 215.187 337.131 214.344 336.784C213.51 336.438 212.816 335.909 212.263 335.199C211.719 334.49 211.446 333.594 211.446 332.514V314.027Z" fill="#1941A0"/>
<path d="M231.554 337.45C229.728 337.45 228.125 337.051 226.746 336.252C225.376 335.454 224.305 334.336 223.532 332.901C222.768 331.465 222.386 329.787 222.386 327.868C222.386 325.932 222.768 324.242 223.532 322.798C224.305 321.354 225.376 320.233 226.746 319.435C228.125 318.636 229.728 318.237 231.554 318.237C233.381 318.237 234.979 318.636 236.349 319.435C237.728 320.233 238.799 321.354 239.563 322.798C240.336 324.242 240.723 325.932 240.723 327.868C240.723 329.787 240.336 331.465 239.563 332.901C238.799 334.336 237.728 335.454 236.349 336.252C234.979 337.051 233.381 337.45 231.554 337.45ZM231.554 334.885C232.942 334.885 234.084 334.558 234.979 333.905C235.875 333.252 236.538 332.393 236.968 331.328C237.399 330.263 237.614 329.11 237.614 327.868C237.614 326.626 237.399 325.468 236.968 324.395C236.538 323.323 235.875 322.455 234.979 321.794C234.084 321.133 232.942 320.802 231.554 320.802C230.167 320.802 229.025 321.133 228.13 321.794C227.234 322.455 226.571 323.323 226.14 324.395C225.71 325.468 225.495 326.626 225.495 327.868C225.495 329.11 225.71 330.263 226.14 331.328C226.571 332.393 227.234 333.252 228.13 333.905C229.025 334.558 230.167 334.885 231.554 334.885Z" fill="#1941A0"/>
<path d="M263.541 337.45C261.855 337.45 260.366 337.059 259.075 336.276C257.785 335.486 256.775 334.373 256.046 332.937C255.317 331.493 254.952 329.787 254.952 327.819C254.952 325.867 255.317 324.173 256.046 322.738C256.775 321.302 257.789 320.193 259.089 319.411C260.388 318.628 261.89 318.237 263.594 318.237C264.911 318.237 265.952 318.439 266.716 318.842C267.488 319.237 268.077 319.689 268.481 320.197C268.894 320.697 269.214 321.108 269.442 321.431H269.706V312.284H272.815V337.063H269.811V334.207H269.442C269.214 334.546 268.889 334.974 268.468 335.49C268.046 335.998 267.445 336.454 266.663 336.857C265.881 337.252 264.841 337.45 263.541 337.45ZM263.963 334.885C265.21 334.885 266.263 334.586 267.124 333.99C267.985 333.385 268.639 332.55 269.087 331.485C269.535 330.412 269.759 329.174 269.759 327.771C269.759 326.384 269.539 325.17 269.1 324.129C268.661 323.081 268.011 322.266 267.15 321.685C266.29 321.096 265.227 320.802 263.963 320.802C262.645 320.802 261.548 321.113 260.669 321.734C259.8 322.347 259.146 323.181 258.707 324.238C258.276 325.287 258.061 326.464 258.061 327.771C258.061 329.094 258.281 330.295 258.72 331.376C259.168 332.449 259.826 333.304 260.696 333.941C261.574 334.57 262.663 334.885 263.963 334.885Z" fill="#1941A0"/>
<path d="M287.423 337.45C285.474 337.45 283.792 337.055 282.378 336.264C280.973 335.466 279.888 334.353 279.124 332.925C278.369 331.489 277.991 329.82 277.991 327.916C277.991 326.013 278.369 324.335 279.124 322.883C279.888 321.423 280.951 320.286 282.312 319.471C283.682 318.648 285.28 318.237 287.107 318.237C288.161 318.237 289.201 318.398 290.229 318.721C291.256 319.044 292.192 319.568 293.035 320.294C293.878 321.012 294.549 321.963 295.05 323.149C295.551 324.335 295.801 325.795 295.801 327.529V328.739H280.204V326.271H292.639C292.639 325.222 292.411 324.286 291.954 323.464C291.507 322.641 290.866 321.992 290.031 321.516C289.206 321.04 288.231 320.802 287.107 320.802C285.869 320.802 284.797 321.084 283.893 321.649C282.997 322.205 282.308 322.931 281.825 323.827C281.342 324.722 281.1 325.682 281.1 326.706V328.352C281.1 329.755 281.364 330.945 281.891 331.921C282.426 332.889 283.168 333.627 284.117 334.135C285.065 334.635 286.167 334.885 287.423 334.885C288.24 334.885 288.977 334.78 289.636 334.57C290.304 334.353 290.879 334.03 291.362 333.602C291.845 333.167 292.218 332.626 292.481 331.981L295.485 332.756C295.169 333.691 294.637 334.514 293.891 335.224C293.144 335.925 292.222 336.474 291.125 336.869C290.027 337.256 288.793 337.45 287.423 337.45Z" fill="#1941A0"/>
<path d="M329.826 320.028C329.536 319.213 329.154 318.483 328.68 317.838C328.214 317.184 327.657 316.628 327.007 316.168C326.366 315.708 325.637 315.358 324.82 315.116C324.004 314.874 323.108 314.753 322.133 314.753C320.535 314.753 319.081 315.132 317.773 315.89C316.464 316.648 315.424 317.765 314.651 319.241C313.878 320.717 313.492 322.528 313.492 324.674C313.492 326.819 313.883 328.63 314.664 330.106C315.446 331.582 316.504 332.699 317.839 333.457C319.174 334.215 320.675 334.595 322.344 334.595C323.889 334.595 325.251 334.292 326.427 333.687C327.613 333.074 328.535 332.211 329.194 331.098C329.861 329.977 330.195 328.658 330.195 327.142L331.196 327.335H323.082V324.674H333.356V327.335C333.356 329.376 332.882 331.15 331.934 332.659C330.994 334.167 329.694 335.337 328.034 336.167C326.383 336.99 324.487 337.401 322.344 337.401C319.955 337.401 317.856 336.885 316.047 335.853C314.247 334.82 312.842 333.352 311.832 331.449C310.831 329.545 310.33 327.287 310.33 324.674C310.33 322.714 310.616 320.951 311.187 319.386C311.766 317.814 312.583 316.475 313.637 315.37C314.691 314.265 315.938 313.418 317.378 312.829C318.818 312.24 320.403 311.946 322.133 311.946C323.556 311.946 324.882 312.143 326.111 312.539C327.349 312.926 328.452 313.478 329.418 314.196C330.392 314.906 331.205 315.757 331.855 316.749C332.504 317.733 332.952 318.826 333.198 320.028H329.826Z" fill="#1941A0"/>
<path d="M347.013 337.45C345.063 337.45 343.382 337.055 341.968 336.264C340.563 335.466 339.478 334.353 338.714 332.925C337.959 331.489 337.581 329.82 337.581 327.916C337.581 326.013 337.959 324.335 338.714 322.883C339.478 321.423 340.541 320.286 341.902 319.471C343.272 318.648 344.87 318.237 346.697 318.237C347.751 318.237 348.791 318.398 349.819 318.721C350.846 319.044 351.782 319.568 352.625 320.294C353.468 321.012 354.139 321.963 354.64 323.149C355.141 324.335 355.391 325.795 355.391 327.529V328.739H339.794V326.271H352.229C352.229 325.222 352.001 324.286 351.544 323.464C351.097 322.641 350.455 321.992 349.621 321.516C348.796 321.04 347.821 320.802 346.697 320.802C345.459 320.802 344.387 321.084 343.483 321.649C342.587 322.205 341.898 322.931 341.415 323.827C340.932 324.722 340.69 325.682 340.69 326.706V328.352C340.69 329.755 340.954 330.945 341.48 331.921C342.016 332.889 342.758 333.627 343.707 334.135C344.655 334.635 345.757 334.885 347.013 334.885C347.83 334.885 348.567 334.78 349.226 334.57C349.893 334.353 350.469 334.03 350.952 333.602C351.435 333.167 351.808 332.626 352.071 331.981L355.075 332.756C354.759 333.691 354.227 334.514 353.481 335.224C352.734 335.925 351.812 336.474 350.715 336.869C349.617 337.256 348.383 337.45 347.013 337.45Z" fill="#1941A0"/>
<path d="M374.452 322.641L371.659 323.367C371.483 322.939 371.224 322.524 370.882 322.121C370.548 321.709 370.092 321.371 369.512 321.104C368.932 320.838 368.19 320.705 367.286 320.705C366.048 320.705 365.016 320.967 364.19 321.492C363.373 322.008 362.965 322.665 362.965 323.464C362.965 324.173 363.246 324.734 363.808 325.145C364.37 325.557 365.248 325.9 366.443 326.174L369.446 326.851C371.255 327.255 372.603 327.872 373.49 328.702C374.377 329.525 374.821 330.586 374.821 331.884C374.821 332.949 374.487 333.901 373.819 334.74C373.161 335.579 372.239 336.24 371.053 336.724C369.868 337.208 368.489 337.45 366.917 337.45C364.853 337.45 363.145 337.038 361.793 336.216C360.44 335.393 359.584 334.191 359.224 332.61L362.175 331.933C362.456 332.933 362.987 333.683 363.769 334.183C364.559 334.683 365.591 334.933 366.864 334.933C368.313 334.933 369.464 334.651 370.315 334.086C371.176 333.514 371.606 332.828 371.606 332.03C371.606 331.384 371.361 330.844 370.869 330.408C370.377 329.965 369.622 329.634 368.603 329.416L365.231 328.69C363.378 328.287 362.017 327.662 361.147 326.815C360.287 325.96 359.856 324.891 359.856 323.609C359.856 322.56 360.177 321.633 360.818 320.826C361.468 320.02 362.35 319.386 363.466 318.927C364.59 318.467 365.863 318.237 367.286 318.237C369.288 318.237 370.86 318.64 372.002 319.447C373.152 320.253 373.969 321.318 374.452 322.641Z" fill="#1941A0"/>
<path d="M388.299 318.479V320.899H377.814V318.479H388.299ZM380.87 314.027H383.979V331.739C383.979 332.546 384.106 333.151 384.361 333.554C384.624 333.949 384.958 334.215 385.362 334.353C385.775 334.482 386.209 334.546 386.666 334.546C387.009 334.546 387.29 334.53 387.509 334.498C387.729 334.457 387.904 334.425 388.036 334.401L388.668 336.966C388.458 337.038 388.163 337.111 387.786 337.184C387.408 337.264 386.93 337.305 386.35 337.305C385.472 337.305 384.611 337.131 383.768 336.784C382.934 336.438 382.24 335.909 381.687 335.199C381.142 334.49 380.87 333.594 380.87 332.514V314.027Z" fill="#1941A0"/>
<path d="M398.93 337.498C397.648 337.498 396.484 337.276 395.439 336.833C394.394 336.381 393.564 335.732 392.949 334.885C392.335 334.03 392.027 332.997 392.027 331.788C392.027 330.723 392.256 329.86 392.712 329.199C393.169 328.529 393.779 328.005 394.543 327.626C395.307 327.247 396.15 326.964 397.072 326.779C398.003 326.585 398.939 326.432 399.878 326.319C401.108 326.174 402.104 326.065 402.868 325.992C403.641 325.912 404.203 325.779 404.555 325.593C404.915 325.408 405.095 325.085 405.095 324.625V324.528C405.095 323.335 404.739 322.407 404.028 321.746C403.325 321.084 402.258 320.754 400.827 320.754C399.343 320.754 398.179 321.052 397.336 321.649C396.493 322.246 395.9 322.883 395.558 323.56L392.607 322.593C393.134 321.463 393.836 320.584 394.715 319.955C395.602 319.318 396.568 318.874 397.613 318.624C398.666 318.366 399.703 318.237 400.721 318.237C401.371 318.237 402.118 318.31 402.961 318.455C403.812 318.592 404.634 318.878 405.424 319.314C406.223 319.749 406.886 320.407 407.413 321.286C407.94 322.165 408.203 323.343 408.203 324.819V337.063H405.095V334.546H404.937C404.726 334.949 404.375 335.381 403.883 335.841C403.391 336.3 402.737 336.692 401.92 337.014C401.103 337.337 400.107 337.498 398.93 337.498ZM399.404 334.933C400.633 334.933 401.67 334.711 402.513 334.268C403.365 333.824 404.006 333.252 404.436 332.55C404.875 331.848 405.095 331.11 405.095 330.336V327.722C404.963 327.868 404.673 328.001 404.225 328.122C403.786 328.235 403.277 328.335 402.697 328.424C402.126 328.505 401.569 328.577 401.024 328.642C400.489 328.698 400.054 328.747 399.72 328.787C398.912 328.884 398.157 329.041 397.454 329.259C396.761 329.469 396.199 329.787 395.768 330.215C395.347 330.634 395.136 331.207 395.136 331.933C395.136 332.925 395.536 333.675 396.335 334.183C397.143 334.683 398.166 334.933 399.404 334.933ZM396.875 316.253L394.451 316.156C394.451 314.922 394.833 313.914 395.597 313.131C396.37 312.341 397.323 311.946 398.456 311.946C398.956 311.946 399.4 312.026 399.786 312.188C400.172 312.341 400.541 312.518 400.893 312.72C401.244 312.922 401.604 313.103 401.973 313.264C402.35 313.418 402.776 313.494 403.25 313.494C403.751 313.494 404.173 313.317 404.515 312.962C404.866 312.599 405.042 312.163 405.042 311.655L407.413 311.849C407.413 313.107 407.027 314.107 406.254 314.849C405.49 315.591 404.541 315.962 403.409 315.962C402.803 315.962 402.302 315.886 401.907 315.733C401.512 315.571 401.16 315.39 400.853 315.188C400.546 314.987 400.221 314.809 399.878 314.656C399.536 314.495 399.114 314.414 398.614 314.414C398.113 314.414 397.696 314.595 397.362 314.958C397.037 315.313 396.875 315.745 396.875 316.253Z" fill="#1941A0"/>
<path d="M422.097 337.45C420.271 337.45 418.668 337.051 417.289 336.252C415.919 335.454 414.848 334.336 414.075 332.901C413.311 331.465 412.929 329.787 412.929 327.868C412.929 325.932 413.311 324.242 414.075 322.798C414.848 321.354 415.919 320.233 417.289 319.435C418.668 318.636 420.271 318.237 422.097 318.237C423.924 318.237 425.522 318.636 426.892 319.435C428.271 320.233 429.342 321.354 430.106 322.798C430.879 324.242 431.265 325.932 431.265 327.868C431.265 329.787 430.879 331.465 430.106 332.901C429.342 334.336 428.271 335.454 426.892 336.252C425.522 337.051 423.924 337.45 422.097 337.45ZM422.097 334.885C423.485 334.885 424.626 334.558 425.522 333.905C426.418 333.252 427.081 332.393 427.511 331.328C427.942 330.263 428.157 329.11 428.157 327.868C428.157 326.626 427.942 325.468 427.511 324.395C427.081 323.323 426.418 322.455 425.522 321.794C424.626 321.133 423.485 320.802 422.097 320.802C420.71 320.802 419.568 321.133 418.672 321.794C417.777 322.455 417.114 323.323 416.683 324.395C416.253 325.468 416.038 326.626 416.038 327.868C416.038 329.11 416.253 330.263 416.683 331.328C417.114 332.393 417.777 333.252 418.672 333.905C419.568 334.558 420.71 334.885 422.097 334.885Z" fill="#1941A0"/>
<path d="M109.513 378.692C107.827 378.692 106.338 378.301 105.047 377.519C103.756 376.728 102.747 375.615 102.018 374.18C101.289 372.736 100.924 371.03 100.924 369.062C100.924 367.11 101.289 365.416 102.018 363.98C102.747 362.545 103.761 361.436 105.061 360.653C106.36 359.871 107.862 359.48 109.566 359.48C110.883 359.48 111.923 359.681 112.687 360.085C113.46 360.48 114.049 360.932 114.453 361.44C114.865 361.94 115.186 362.351 115.414 362.674H115.678V353.527H118.786V378.305H115.783V375.45H115.414C115.186 375.789 114.861 376.216 114.439 376.733C114.018 377.241 113.416 377.696 112.635 378.1C111.853 378.495 110.813 378.692 109.513 378.692ZM109.934 376.128C111.181 376.128 112.235 375.829 113.096 375.232C113.956 374.627 114.611 373.792 115.059 372.728C115.506 371.655 115.73 370.417 115.73 369.014C115.73 367.626 115.511 366.412 115.072 365.372C114.633 364.323 113.983 363.509 113.122 362.928C112.262 362.339 111.199 362.045 109.934 362.045C108.617 362.045 107.519 362.355 106.641 362.976C105.772 363.589 105.118 364.424 104.679 365.481C104.248 366.529 104.033 367.707 104.033 369.014C104.033 370.336 104.253 371.538 104.692 372.619C105.14 373.692 105.798 374.547 106.668 375.184C107.546 375.813 108.635 376.128 109.934 376.128Z" fill="#1941A0"/>
<path d="M133.395 378.692C131.445 378.692 129.764 378.297 128.35 377.507C126.945 376.708 125.86 375.595 125.096 374.168C124.341 372.732 123.963 371.062 123.963 369.159C123.963 367.255 124.341 365.577 125.096 364.126C125.86 362.666 126.923 361.528 128.284 360.714C129.654 359.891 131.252 359.48 133.079 359.48C134.133 359.48 135.173 359.641 136.201 359.964C137.228 360.286 138.163 360.811 139.007 361.536C139.85 362.254 140.521 363.206 141.022 364.392C141.522 365.577 141.773 367.037 141.773 368.772V369.981H126.176V367.513H138.611C138.611 366.465 138.383 365.529 137.926 364.706C137.478 363.884 136.837 363.234 136.003 362.758C135.178 362.283 134.203 362.045 133.079 362.045C131.841 362.045 130.769 362.327 129.865 362.892C128.969 363.448 128.28 364.174 127.797 365.069C127.314 365.965 127.072 366.924 127.072 367.949V369.594C127.072 370.998 127.336 372.187 127.862 373.163C128.398 374.131 129.14 374.869 130.089 375.377C131.037 375.878 132.139 376.128 133.395 376.128C134.212 376.128 134.949 376.023 135.608 375.813C136.275 375.595 136.851 375.273 137.334 374.845C137.817 374.41 138.19 373.869 138.453 373.224L141.457 373.998C141.14 374.934 140.609 375.757 139.863 376.466C139.116 377.168 138.194 377.717 137.096 378.112C135.999 378.499 134.765 378.692 133.395 378.692Z" fill="#1941A0"/>
<path d="M157.356 378.305V353.527H166.472C168.588 353.527 170.318 353.878 171.662 354.58C173.014 355.273 174.015 356.213 174.665 357.399C175.315 358.584 175.64 359.907 175.64 361.367C175.64 362.827 175.315 364.154 174.665 365.348C174.024 366.541 173.032 367.493 171.688 368.203C170.344 368.905 168.623 369.255 166.524 369.255H159.991V366.594H166.419C167.868 366.594 169.031 366.364 169.91 365.904C170.788 365.444 171.424 364.823 171.82 364.041C172.224 363.25 172.426 362.359 172.426 361.367C172.426 360.375 172.224 359.488 171.82 358.705C171.424 357.923 170.783 357.31 169.896 356.866C169.009 356.415 167.833 356.189 166.366 356.189H160.623V378.305H157.356Z" fill="#1941A0"/>
<path d="M188.747 378.692C186.797 378.692 185.115 378.297 183.701 377.507C182.296 376.708 181.212 375.595 180.448 374.168C179.693 372.732 179.315 371.062 179.315 369.159C179.315 367.255 179.693 365.577 180.448 364.126C181.212 362.666 182.274 361.528 183.636 360.714C185.006 359.891 186.604 359.48 188.43 359.48C189.484 359.48 190.525 359.641 191.552 359.964C192.58 360.286 193.515 360.811 194.358 361.536C195.201 362.254 195.873 363.206 196.374 364.392C196.874 365.577 197.124 367.037 197.124 368.772V369.981H181.528V367.513H193.963C193.963 366.465 193.735 365.529 193.278 364.706C192.83 363.884 192.189 363.234 191.355 362.758C190.529 362.283 189.554 362.045 188.43 362.045C187.192 362.045 186.121 362.327 185.216 362.892C184.321 363.448 183.631 364.174 183.148 365.069C182.665 365.965 182.424 366.924 182.424 367.949V369.594C182.424 370.998 182.687 372.187 183.214 373.163C183.75 374.131 184.492 374.869 185.44 375.377C186.389 375.878 187.491 376.128 188.747 376.128C189.563 376.128 190.301 376.023 190.96 375.813C191.627 375.595 192.202 375.273 192.685 374.845C193.168 374.41 193.541 373.869 193.805 373.224L196.808 373.998C196.492 374.934 195.961 375.757 195.214 376.466C194.468 377.168 193.546 377.717 192.448 378.112C191.35 378.499 190.117 378.692 188.747 378.692Z" fill="#1941A0"/>
<path d="M201.853 378.305V359.722H204.857V362.529H205.067C205.436 361.609 206.104 360.863 207.07 360.29C208.036 359.718 209.125 359.431 210.337 359.431C210.565 359.431 210.85 359.435 211.193 359.443C211.535 359.451 211.794 359.464 211.97 359.48V362.383C211.865 362.359 211.623 362.323 211.245 362.275C210.877 362.218 210.486 362.19 210.073 362.19C209.09 362.19 208.211 362.379 207.439 362.758C206.675 363.13 206.069 363.646 205.621 364.307C205.182 364.96 204.962 365.707 204.962 366.545V378.305H201.853Z" fill="#1941A0"/>
<path d="M218.764 367.126V378.305H215.655V359.722H218.658V362.625H218.922C219.396 361.682 220.116 360.923 221.082 360.351C222.048 359.77 223.295 359.48 224.823 359.48C226.193 359.48 227.392 359.738 228.419 360.254C229.447 360.762 230.246 361.536 230.817 362.577C231.388 363.609 231.673 364.916 231.673 366.497V378.305H228.564V366.691C228.564 365.231 228.152 364.093 227.326 363.279C226.501 362.456 225.368 362.045 223.927 362.045C222.935 362.045 222.048 362.242 221.267 362.637C220.494 363.033 219.883 363.609 219.436 364.368C218.988 365.126 218.764 366.045 218.764 367.126Z" fill="#1941A0"/>
<path d="M243.308 378.741C242.026 378.741 240.862 378.519 239.817 378.075C238.772 377.624 237.942 376.974 237.327 376.128C236.713 375.273 236.405 374.24 236.405 373.03C236.405 371.966 236.634 371.103 237.09 370.441C237.547 369.772 238.157 369.247 238.921 368.868C239.685 368.489 240.528 368.207 241.45 368.021C242.381 367.828 243.317 367.675 244.256 367.562C245.486 367.416 246.482 367.308 247.246 367.235C248.019 367.154 248.581 367.021 248.933 366.836C249.293 366.65 249.473 366.328 249.473 365.868V365.771C249.473 364.577 249.117 363.65 248.406 362.988C247.703 362.327 246.636 361.996 245.205 361.996C243.721 361.996 242.557 362.295 241.714 362.892C240.871 363.488 240.278 364.126 239.936 364.803L236.985 363.835C237.512 362.706 238.214 361.827 239.093 361.198C239.979 360.561 240.945 360.117 241.991 359.867C243.044 359.609 244.081 359.48 245.099 359.48C245.749 359.48 246.496 359.552 247.339 359.697C248.19 359.835 249.012 360.121 249.802 360.556C250.601 360.992 251.264 361.649 251.791 362.529C252.318 363.408 252.581 364.585 252.581 366.061V378.305H249.473V375.789H249.315C249.104 376.192 248.752 376.624 248.261 377.083C247.769 377.543 247.115 377.934 246.298 378.257C245.481 378.58 244.485 378.741 243.308 378.741ZM243.782 376.176C245.011 376.176 246.048 375.954 246.891 375.511C247.743 375.067 248.384 374.494 248.814 373.792C249.253 373.091 249.473 372.353 249.473 371.578V368.965C249.341 369.11 249.051 369.243 248.603 369.364C248.164 369.477 247.655 369.578 247.075 369.667C246.504 369.747 245.947 369.82 245.402 369.885C244.867 369.941 244.432 369.989 244.098 370.03C243.29 370.127 242.535 370.284 241.832 370.502C241.139 370.711 240.577 371.03 240.146 371.457C239.725 371.877 239.514 372.45 239.514 373.175C239.514 374.168 239.914 374.918 240.713 375.426C241.521 375.926 242.544 376.176 243.782 376.176Z" fill="#1941A0"/>
<path d="M258.255 378.305V359.722H261.259V362.625H261.522C261.944 361.633 262.624 360.863 263.564 360.315C264.504 359.758 265.632 359.48 266.949 359.48C268.284 359.48 269.395 359.758 270.282 360.315C271.178 360.863 271.876 361.633 272.377 362.625H272.587C273.105 361.666 273.883 360.903 274.919 360.339C275.955 359.766 277.198 359.48 278.647 359.48C280.456 359.48 281.936 360 283.086 361.04C284.236 362.073 284.812 363.682 284.812 365.868V378.305H281.703V365.868C281.703 364.497 281.294 363.517 280.478 362.928C279.661 362.339 278.699 362.045 277.593 362.045C276.17 362.045 275.068 362.44 274.287 363.23C273.505 364.013 273.114 365.005 273.114 366.207V378.305H269.953V365.577C269.953 364.521 269.58 363.67 268.833 363.025C268.087 362.371 267.125 362.045 265.948 362.045C265.14 362.045 264.385 362.242 263.683 362.637C262.989 363.033 262.427 363.581 261.997 364.283C261.575 364.977 261.364 365.779 261.364 366.691V378.305H258.255Z" fill="#1941A0"/>
<path d="M290.917 378.305V353.527H294.026V362.674H294.289C294.518 362.351 294.834 361.94 295.238 361.44C295.651 360.932 296.239 360.48 297.003 360.085C297.776 359.681 298.821 359.48 300.138 359.48C301.842 359.48 303.343 359.871 304.643 360.653C305.943 361.436 306.957 362.545 307.686 363.98C308.415 365.416 308.779 367.11 308.779 369.062C308.779 371.03 308.415 372.736 307.686 374.18C306.957 375.615 305.947 376.728 304.656 377.519C303.365 378.301 301.877 378.692 300.191 378.692C298.891 378.692 297.85 378.495 297.069 378.1C296.287 377.696 295.686 377.241 295.264 376.733C294.843 376.216 294.518 375.789 294.289 375.45H293.921V378.305H290.917ZM293.973 369.014C293.973 370.417 294.197 371.655 294.645 372.728C295.093 373.792 295.747 374.627 296.608 375.232C297.468 375.829 298.522 376.128 299.769 376.128C301.069 376.128 302.153 375.813 303.023 375.184C303.901 374.547 304.56 373.692 304.999 372.619C305.447 371.538 305.671 370.336 305.671 369.014C305.671 367.707 305.451 366.529 305.012 365.481C304.582 364.424 303.927 363.589 303.049 362.976C302.18 362.355 301.086 362.045 299.769 362.045C298.505 362.045 297.442 362.339 296.581 362.928C295.721 363.509 295.071 364.323 294.632 365.372C294.193 366.412 293.973 367.626 293.973 369.014Z" fill="#1941A0"/>
<path d="M326.286 370.707V359.722H329.395V378.305H326.286V375.16H326.075C325.601 376.103 324.863 376.906 323.862 377.567C322.861 378.221 321.596 378.547 320.068 378.547C318.804 378.547 317.68 378.293 316.696 377.785C315.713 377.269 314.94 376.495 314.378 375.462C313.816 374.422 313.535 373.111 313.535 371.53V359.722H316.643V371.336C316.643 372.692 317.056 373.772 317.882 374.579C318.716 375.386 319.778 375.789 321.069 375.789C321.842 375.789 322.628 375.607 323.427 375.244C324.235 374.881 324.911 374.325 325.456 373.575C326.009 372.825 326.286 371.869 326.286 370.707Z" fill="#1941A0"/>
<path d="M343.308 378.692C341.411 378.692 339.778 378.281 338.408 377.458C337.038 376.636 335.984 375.502 335.247 374.059C334.509 372.615 334.14 370.965 334.14 369.11C334.14 367.223 334.518 365.557 335.273 364.114C336.037 362.662 337.099 361.528 338.461 360.714C339.831 359.891 341.429 359.48 343.255 359.48C344.678 359.48 345.96 359.722 347.102 360.206C348.244 360.69 349.179 361.367 349.908 362.238C350.637 363.109 351.089 364.126 351.264 365.287H348.156C347.919 364.44 347.392 363.69 346.575 363.037C345.767 362.375 344.678 362.045 343.308 362.045C342.096 362.045 341.034 362.335 340.12 362.916C339.216 363.488 338.509 364.299 338 365.348C337.499 366.388 337.249 367.61 337.249 369.014C337.249 370.449 337.495 371.699 337.986 372.764C338.487 373.829 339.19 374.656 340.094 375.244C341.007 375.833 342.079 376.128 343.308 376.128C344.116 376.128 344.849 375.999 345.508 375.74C346.167 375.482 346.724 375.111 347.181 374.627C347.638 374.143 347.963 373.563 348.156 372.885H351.264C351.089 373.982 350.654 374.97 349.96 375.849C349.275 376.72 348.366 377.414 347.234 377.93C346.11 378.438 344.801 378.692 343.308 378.692Z" fill="#1941A0"/>
<path d="M364.029 378.692C362.202 378.692 360.6 378.293 359.221 377.495C357.851 376.696 356.779 375.579 356.007 374.143C355.243 372.708 354.861 371.03 354.861 369.11C354.861 367.175 355.243 365.485 356.007 364.041C356.779 362.597 357.851 361.476 359.221 360.677C360.6 359.879 362.202 359.48 364.029 359.48C365.855 359.48 367.454 359.879 368.824 360.677C370.202 361.476 371.274 362.597 372.038 364.041C372.811 365.485 373.197 367.175 373.197 369.11C373.197 371.03 372.811 372.708 372.038 374.143C371.274 375.579 370.202 376.696 368.824 377.495C367.454 378.293 365.855 378.692 364.029 378.692ZM364.029 376.128C365.416 376.128 366.558 375.801 367.454 375.148C368.349 374.494 369.012 373.635 369.443 372.571C369.873 371.506 370.088 370.352 370.088 369.11C370.088 367.868 369.873 366.711 369.443 365.638C369.012 364.565 368.349 363.698 367.454 363.037C366.558 362.375 365.416 362.045 364.029 362.045C362.641 362.045 361.5 362.375 360.604 363.037C359.708 363.698 359.045 364.565 358.615 365.638C358.185 366.711 357.969 367.868 357.969 369.11C357.969 370.352 358.185 371.506 358.615 372.571C359.045 373.635 359.708 374.494 360.604 375.148C361.5 375.801 362.641 376.128 364.029 376.128Z" fill="#1941A0"/>
<path d="M185.091 212.263H222.791C225.33 212.263 227.361 214.01 227.361 216.195V292.313C227.361 295.043 225.838 297.337 222.791 299.084C216.191 302.251 205.655 303.889 191.184 303.889C170.112 303.889 155.007 298.21 145.994 286.853C136.982 275.495 132.412 254.964 132.412 225.368C132.412 195.882 136.982 175.569 146.248 164.211C155.387 152.854 171.382 147.284 193.976 147.284C203.37 147.284 211.367 148.157 217.714 149.905C220.76 150.779 222.284 152.417 222.284 154.928V165.849C222.284 168.58 220.253 169.672 216.191 168.907C209.717 167.487 203.116 166.723 196.261 166.723C181.029 166.723 170.874 170.764 165.542 178.845C160.211 186.927 157.545 202.434 157.545 225.477C157.545 248.52 160.084 264.246 165.162 272.546C170.239 280.846 179.506 285.105 192.961 285.105C197.912 285.105 201.593 284.559 204.131 283.576V230.61H197.023C187.757 230.61 180.267 224.167 180.267 216.195C180.267 213.574 181.917 212.263 185.091 212.263Z" fill="#1941A0"/>
<path d="M242.594 302.142C239.42 302.142 237.77 300.831 237.77 298.21V153.29C237.77 150.669 239.42 149.359 242.594 149.359H274.709C294.638 149.359 308.601 153.29 316.852 161.044C324.976 168.798 329.165 182.777 329.165 202.98C329.165 222.856 325.103 236.726 316.852 244.589C308.728 252.452 294.765 256.383 274.963 256.383H266.458C264.173 256.383 262.396 257.912 262.396 259.878V285.215C262.269 294.606 253.383 302.142 242.594 302.142ZM262.269 233.559C262.269 235.525 264.046 237.054 266.331 237.054H274.836C286.006 237.054 293.622 234.651 297.684 229.955C301.873 225.259 303.904 216.085 303.904 202.653C303.904 189.329 301.873 180.265 297.684 175.569C293.495 170.873 285.879 168.47 274.836 168.47H266.331C264.046 168.47 262.269 169.999 262.269 171.965V233.559Z" fill="#1941A0"/>
<path d="M409.136 233.34H363.819V282.703H411.929C414.467 282.703 416.498 284.45 416.498 286.634V298.21C416.498 300.395 414.467 302.142 411.929 302.142H344.398C341.224 302.142 339.574 300.831 339.574 298.21V153.072C339.574 150.451 341.224 149.14 344.398 149.14H397.712C407.613 149.14 415.61 156.021 415.61 164.539C415.61 166.723 413.579 168.47 411.04 168.47H363.692V214.556H409.009C411.548 214.556 413.579 216.304 413.579 218.488V229.409C413.706 231.593 411.675 233.34 409.136 233.34Z" fill="#1941A0"/>
<path d="M108.601 176.271C116.864 176.271 123.561 169.464 123.561 161.068C123.561 152.672 116.864 145.865 108.601 145.865C100.339 145.865 93.6414 152.672 93.6414 161.068C93.6414 169.464 100.339 176.271 108.601 176.271Z" fill="#1941A0"/>
<path d="M111.213 184.742C106.771 184.742 102.709 183.759 99.0274 182.121V298.21C99.0274 300.394 101.058 302.142 103.597 302.142C114.514 302.142 123.272 294.497 123.272 285.214V182.121C119.718 183.759 115.529 184.742 111.213 184.742Z" fill="#1941A0"/>
<defs>
<linearGradient id="paint0_linear_35_33" x1="262.453" y1="568.313" x2="262.453" y2="-16.646" gradientUnits="userSpaceOnUse">
<stop stop-color="#21D6CC"/>
<stop offset="1" stop-color="#7D21CF"/>
</linearGradient>
</defs>
</svg>
